<svg xmlns="http://www.w3.org/2000/svg" width="16.828" height="14" viewBox="0 0 16.828 14">
  <g id="right-arrow_3_" data-name="right-arrow (3)" transform="translate(0 -41.346)">
    <g id="Groupe_72" data-name="Groupe 72" transform="translate(0 41.346)">
      <path id="Tracé_9" data-name="Tracé 9" d="M16.559,47.692l-6.077-6.077a.924.924,0,0,0-1.3,0l-.552.552a.914.914,0,0,0-.269.651.932.932,0,0,0,.269.659l3.545,3.553H.909A.9.9,0,0,0,0,47.936v.78a.933.933,0,0,0,.909.946h11.3L8.628,53.235a.912.912,0,0,0,0,1.293l.552.55a.924.924,0,0,0,1.3,0L16.56,49a.929.929,0,0,0,0-1.307Z" transform="translate(0 -41.346)" fill="#f81475"/>
    </g>
  </g>
</svg>
