<svg xmlns="http://www.w3.org/2000/svg" width="39.5" height="39.498" viewBox="0 0 39.5 39.498">
  <g id="cancel" transform="translate(0 -0.011)">
    <g id="Groupe_68" data-name="Groupe 68" transform="translate(0 0.011)">
      <circle id="Ellipse_24" data-name="Ellipse 24" cx="18.229" cy="18.229" r="18.229" transform="translate(1.521 1.521)" fill="#0e0000"/>
      <path id="Tracé_5" data-name="Tracé 5" d="M19.75,39.509A19.749,19.749,0,0,1,5.778,5.788h0A19.76,19.76,0,1,1,19.75,39.509ZM7.942,7.952a16.7,16.7,0,1,0,23.617,0,16.721,16.721,0,0,0-23.617,0Z" transform="translate(0 -0.011)" fill="#0e0000"/>
    </g>
    <g id="Groupe_69" data-name="Groupe 69" transform="translate(12.904 12.719)">
      <path id="Tracé_6" data-name="Tracé 6" d="M168.8,178.618a1.531,1.531,0,0,1-1.082-2.613l10.821-10.821a1.53,1.53,0,0,1,2.164,2.164l-10.821,10.821A1.529,1.529,0,0,1,168.8,178.618Z" transform="translate(-167.27 -164.735)" fill="#fff"/>
      <path id="Tracé_7" data-name="Tracé 7" d="M179.6,178.618a1.526,1.526,0,0,1-1.082-.448L167.7,167.348a1.53,1.53,0,1,1,2.164-2.164l10.821,10.821a1.531,1.531,0,0,1-1.082,2.613Z" transform="translate(-167.251 -164.735)" fill="#fff"/>
    </g>
  </g>
</svg>
