<svg xmlns="http://www.w3.org/2000/svg" width="20.397" height="20.397" viewBox="0 0 20.397 20.397">
  <path id="close_1_" data-name="close (1)" d="M13.564,10.2l6.31-6.31a1.784,1.784,0,0,0,0-2.524L19.033.524a1.784,1.784,0,0,0-2.524,0L10.2,6.834,3.889.523a1.784,1.784,0,0,0-2.524,0l-.843.841a1.784,1.784,0,0,0,0,2.524L6.834,10.2l-6.31,6.31a1.784,1.784,0,0,0,0,2.524l.841.841a1.784,1.784,0,0,0,2.524,0l6.31-6.31,6.31,6.31a1.784,1.784,0,0,0,2.524,0l.841-.841a1.784,1.784,0,0,0,0-2.524Zm0,0" transform="translate(0 0)" fill="#fff"/>
</svg>
